<svg width="42" height="42" viewBox="0 0 42 42" fill="none" xmlns="http://www.w3.org/2000/svg">
<path d="M21 23.1C22.1598 23.1 23.1 22.1598 23.1 21C23.1 19.8402 22.1598 18.9 21 18.9C19.8402 18.9 18.9 19.8402 18.9 21C18.9 22.1598 19.8402 23.1 21 23.1Z" fill="white"/>
<path d="M21 8.40294C27.9455 8.40294 33.5966 14.054 33.5966 21C33.5966 27.946 27.9455 33.5971 21 33.5971C14.054 33.5971 8.40335 27.946 8.40335 21C8.40335 14.054 14.054 8.40294 21 8.40294ZM21 4.20294C11.7235 4.20294 4.20335 11.7239 4.20335 21C4.20335 30.2761 11.7235 37.7971 21 37.7971C30.277 37.7971 37.7966 30.2761 37.7966 21C37.7966 11.7239 30.277 4.20294 21 4.20294Z" fill="white"/>
<path d="M21 15.931C23.7947 15.931 26.0686 18.2049 26.0686 21C26.0686 23.7951 23.7947 26.069 21 26.069C18.2053 26.069 15.9314 23.7951 15.9314 21C15.9314 18.2049 18.2053 15.931 21 15.931ZM21 11.731C15.881 11.731 11.7314 15.8815 11.7314 21C11.7314 26.1185 15.881 30.269 21 30.269C26.119 30.269 30.2686 26.1185 30.2686 21C30.2686 15.8815 26.119 11.731 21 11.731Z" fill="white"/>
</svg>
