<svg width="27" height="42" viewBox="0 0 27 42" fill="none" xmlns="http://www.w3.org/2000/svg">
<g clip-path="url(#clip0_119_173)">
<path d="M14.0864 5.25C9.15598 5.25 4.84185 7.875 2.78751 12.075C1.34946 15.225 1.34946 18.9 2.99294 22.05L6.2799 28.35V31.85C6.2799 33.6 7.92338 35 9.97772 35C9.97772 36.05 10.7995 36.75 12.0321 36.75H15.7299C16.9625 36.75 17.7842 36.05 17.7842 35C19.8386 35 21.4821 33.6 21.4821 31.85V28.35L24.769 22.05C26.4125 18.9 26.4125 15.225 24.9745 12.075C23.331 7.875 19.0169 5.25 14.0864 5.25ZM17.7842 31.5H10.594V29.75H17.7842V31.5ZM21.4821 20.65L18.4006 26.25H16.1408V23.975C17.1679 23.8 17.7842 23.1 17.7842 22.225C17.7842 21.175 16.9625 20.475 15.7299 20.475H12.2375C11.0049 20.475 10.1832 21.175 10.1832 22.225C10.1832 23.1 11.0049 23.8 11.8266 23.975V26.25H9.77229L6.8962 20.65C5.66359 18.375 5.66359 15.75 6.69077 13.475C8.12881 10.5 10.7995 8.75 14.0864 8.75C17.3734 8.75 20.044 10.5 21.4821 13.475C22.5092 15.75 22.5092 18.375 21.4821 20.65Z" fill="white"/>
</g>
<defs>
<clipPath id="clip0_119_173">
<rect width="27" height="42" fill="white"/>
</clipPath>
</defs>
</svg>
