<svg width="42" height="42" viewBox="0 0 42 42" fill="none" xmlns="http://www.w3.org/2000/svg">
<path d="M18.8825 22.2425C19.2325 22.5925 19.67 22.75 20.125 22.75C20.58 22.75 21.0175 22.575 21.3675 22.2425L24.8675 18.7425C25.55 18.06 25.55 16.9575 24.8675 16.275C24.185 15.5925 23.0825 15.5925 22.4 16.275L20.1425 18.5325L19.635 18.025C18.9525 17.3425 17.85 17.3425 17.1675 18.025C16.485 18.7075 16.485 19.81 17.1675 20.4925L18.8825 22.2425Z" fill="white"/>
<path d="M3.83249 30.765C4.16499 31.2375 4.68999 31.5 5.24999 31.5H8.74999C9.71249 31.5 10.5 30.7125 10.5 29.75C10.5 28.7875 9.71249 28 8.74999 28H7.68249L8.66249 25.06C8.78499 24.6925 8.78499 24.3075 8.66249 23.9575L7.68249 21H10.5V26.25C10.5 27.2125 11.2875 28 12.25 28V29.75C12.25 30.2225 12.4425 30.66 12.7575 30.9925L19.7575 37.9925C20.1075 38.325 20.545 38.5 21 38.5C21.455 38.5 21.8925 38.325 22.2425 37.9925L29.2425 30.9925C29.5575 30.66 29.75 30.2225 29.75 29.75V28C30.7125 28 31.5 27.2125 31.5 26.25V21H34.3175L33.3375 23.94C33.215 24.3075 33.215 24.6925 33.3375 25.0425L34.3175 28H33.25C32.2875 28 31.5 28.7875 31.5 29.75C31.5 30.7125 32.2875 31.5 33.25 31.5H36.75C37.31 31.5 37.835 31.2375 38.1675 30.765C38.5 30.31 38.5875 29.715 38.4125 29.19L36.8375 24.5L38.395 19.81C38.57 19.2675 38.4825 18.69 38.15 18.235C37.835 17.7625 37.31 17.5 36.75 17.5H31.5V12.25C31.5 11.2875 30.7125 10.5 29.75 10.5V7C29.75 6.195 29.2075 5.495 28.42 5.3025L21.42 3.5525C21.14 3.4825 20.8425 3.4825 20.58 3.5525L13.58 5.3025C12.7925 5.495 12.25 6.195 12.25 7V10.5C11.2875 10.5 10.5 11.2875 10.5 12.25V17.5H5.24999C4.68999 17.5 4.16499 17.7625 3.83249 18.235C3.49999 18.69 3.41249 19.285 3.58749 19.81L5.16249 24.5L3.60499 29.19C3.41249 29.7325 3.49999 30.31 3.83249 30.765ZM28 14V24.5H14V14H28ZM26.25 29.0325L21 34.2825L15.75 29.0325V28H26.25V29.0325ZM15.75 8.365L21 7.0525L26.25 8.365V10.5H15.75V8.365Z" fill="white"/>
</svg>
