<svg width="346" height="347" viewBox="0 0 346 347" fill="none" xmlns="http://www.w3.org/2000/svg">
<rect y="0.5" width="346" height="346" rx="173" fill="#DADADA"/>
<path d="M205.187 289.833C201.456 288.723 198.775 286.165 196.106 283.496C165.118 252.525 134.086 221.588 103.076 190.639C98.4161 185.989 97.3652 180.306 100.329 175.273C101.068 174.013 102.092 172.881 103.137 171.838C134.787 140.223 166.453 108.626 198.125 77.0332C204.213 70.9622 210.975 70.9955 217.102 77.0942C218.86 78.8423 220.617 80.5847 222.363 82.3439C228.106 88.1263 228.112 95.0297 222.318 100.829C212.515 110.645 202.679 120.429 192.859 130.229C176.423 146.627 159.992 163.026 143.544 179.413C142.999 179.957 142.315 180.367 141.548 180.95C142.415 181.866 142.96 182.476 143.544 183.059C169.745 209.213 195.901 235.405 222.19 261.471C227.411 266.648 227.728 273.518 224.348 277.519C220.244 282.375 216.274 287.591 209.857 289.828H205.181L205.187 289.833Z" fill="white"/>
</svg>
