<svg width="10" height="9" viewBox="0 0 10 9" fill="none" xmlns="http://www.w3.org/2000/svg">
<path d="M8.77264 5.21108C8.55622 4.99599 8.33938 4.78124 8.12345 4.56566C7.81395 4.25673 7.50523 3.9471 7.19602 3.63788C6.97638 3.41825 6.75625 3.19917 6.53697 2.97925C6.45257 2.89457 6.41299 2.78996 6.43222 2.6729C6.45361 2.54242 6.52382 2.44285 6.65304 2.39299C6.8187 2.32901 6.95317 2.38201 7.07148 2.50103C7.2779 2.70857 7.48467 2.91569 7.69144 3.12288C7.95709 3.38909 8.22274 3.65523 8.48867 3.92122C8.77921 4.21184 9.0699 4.50224 9.36065 4.79257C9.5342 4.96585 9.70888 5.13808 9.88125 5.31247C9.96159 5.3938 10.0098 5.49113 9.9983 5.60896C9.98963 5.69769 9.9525 5.77482 9.88901 5.83832C9.55427 6.17326 9.2194 6.50807 8.88466 6.84301C8.59594 7.13188 8.30728 7.42074 8.0187 7.70968C7.69711 8.03176 7.37678 8.35495 7.05365 8.67542C6.96631 8.76206 6.85807 8.81423 6.73248 8.78975C6.60507 8.76493 6.50172 8.69836 6.45683 8.56781C6.44208 8.52494 6.43131 8.47872 6.42991 8.43369C6.42634 8.32118 6.48144 8.23216 6.55801 8.15559C6.78975 7.92386 7.02267 7.69331 7.25455 7.46165C7.58369 7.13286 7.91234 6.80358 8.2412 6.47457C8.41595 6.29976 8.59069 6.12487 8.76537 5.94999C8.76684 5.94852 8.76754 5.94621 8.77285 5.93663H8.73047C8.52895 5.93663 8.32749 5.93663 8.12596 5.93663C6.02238 5.93663 3.91886 5.93635 1.81528 5.93726C1.69382 5.93726 1.57327 5.92887 1.45516 5.90412C1.36174 5.88454 1.27091 5.85237 1.1793 5.82447C0.962812 5.75839 0.777088 5.63784 0.607448 5.49211C0.441233 5.34932 0.307954 5.17814 0.207331 4.98389C0.141041 4.85593 0.0902046 4.72111 0.0548919 4.58014C0.0115378 4.40714 0.000209785 4.23225 0.000279711 4.05506C0.000839119 2.93002 0.000279704 1.80491 0 0.679873C0 0.664909 0 0.650014 0 0.632812H0.714434V0.680852C0.714434 1.83267 0.714644 2.98456 0.714225 4.13639C0.714225 4.32211 0.75583 4.49727 0.844147 4.6602C0.948896 4.85348 1.10182 4.99955 1.29587 5.10199C1.37887 5.14577 1.46733 5.17458 1.55928 5.19619C1.65739 5.21919 1.75563 5.22248 1.85507 5.22248C4.1427 5.22227 6.43026 5.22227 8.71789 5.22227H8.76851C8.76991 5.21856 8.77131 5.21486 8.77271 5.21115L8.77264 5.21108Z" fill="white"/>
</svg>
