<svg width="19" height="19" viewBox="0 0 19 19" fill="none" xmlns="http://www.w3.org/2000/svg">
<path d="M12.8684 0.199219H5.26887C1.96789 0.199219 0 2.17004 0 5.47594V13.0777C0 16.3927 1.96789 18.3635 5.26887 18.3635H12.8593C16.1603 18.3635 18.1282 16.3927 18.1282 13.0868V5.47594C18.1372 2.17004 16.1694 0.199219 12.8684 0.199219ZM9.06862 12.8052C7.12794 12.8052 5.55 11.2249 5.55 9.28136C5.55 7.33778 7.12794 5.75749 9.06862 5.75749C11.0093 5.75749 12.5872 7.33778 12.5872 9.28136C12.5872 11.2249 11.0093 12.8052 9.06862 12.8052ZM14.4372 4.6313C14.3919 4.74029 14.3284 4.84019 14.2468 4.93101C14.1561 5.01275 14.0564 5.07633 13.9475 5.12174C13.8387 5.16715 13.7208 5.19439 13.6029 5.19439C13.3581 5.19439 13.1314 5.10357 12.9591 4.93101C12.8774 4.84019 12.814 4.74029 12.7686 4.6313C12.7233 4.52232 12.6961 4.40425 12.6961 4.28618C12.6961 4.16811 12.7233 4.05004 12.7686 3.94106C12.814 3.82299 12.8774 3.73217 12.9591 3.64135C13.1676 3.43246 13.485 3.33256 13.7752 3.39613C13.8387 3.40521 13.8931 3.42338 13.9475 3.45062C14.0019 3.46879 14.0564 3.49603 14.1108 3.53236C14.1561 3.55961 14.2015 3.60502 14.2468 3.64135C14.3284 3.73217 14.3919 3.82299 14.4372 3.94106C14.4826 4.05004 14.5098 4.16811 14.5098 4.28618C14.5098 4.40425 14.4826 4.52232 14.4372 4.6313Z" fill="white"/>
</svg>
