<svg width="19" height="19" viewBox="0 0 19 19" fill="none" xmlns="http://www.w3.org/2000/svg">
<path d="M18.5638 13.0803C18.5638 16.3846 16.5968 18.3544 13.2975 18.3544H12.2189C11.7204 18.3544 11.3125 17.9459 11.3125 17.4467V12.2089C11.3125 11.9638 11.5119 11.755 11.7566 11.755L13.3519 11.7278C13.4788 11.7187 13.5876 11.6279 13.6148 11.5008L13.932 9.76702C13.9592 9.60362 13.8323 9.4493 13.6601 9.4493L11.7294 9.47654C11.4756 9.47654 11.2762 9.27683 11.2671 9.03173L11.2309 6.80772C11.2309 6.66248 11.3487 6.5354 11.5028 6.5354L13.6782 6.49908C13.8323 6.49908 13.9501 6.38108 13.9501 6.22676L13.9139 4.04812C13.9139 3.8938 13.796 3.7758 13.6419 3.7758L11.1946 3.81212C9.68999 3.83935 8.49353 5.0739 8.52073 6.58078L8.56605 9.07712C8.57511 9.3313 8.3757 9.531 8.12191 9.54008L7.03421 9.55824C6.88012 9.55824 6.7623 9.67624 6.7623 9.83056L6.78949 11.5553C6.78949 11.7096 6.90732 11.8276 7.06141 11.8276L8.1491 11.8095C8.40289 11.8095 8.6023 12.0092 8.61137 12.2543L8.69294 17.4285C8.70201 17.9369 8.29412 18.3544 7.78653 18.3544H5.70179C2.40246 18.3544 0.435547 16.3846 0.435547 13.0713V5.47331C0.435547 2.16906 2.40246 0.199219 5.70179 0.199219H13.2975C16.5968 0.199219 18.5638 2.16906 18.5638 5.47331V13.0803Z" fill="white"/>
</svg>
