<svg width="19" height="19" viewBox="0 0 19 19" fill="none" xmlns="http://www.w3.org/2000/svg">
<path d="M18.9844 8.7405C18.6763 3.47621 13.9001 -0.580945 8.3989 0.326697C4.61059 0.952971 1.57451 4.02986 0.985425 7.82378C0.641034 10.0203 1.0942 12.0988 2.08206 13.8142L1.27545 16.8185C1.09419 17.4992 1.71951 18.1164 2.39017 17.9258L5.34469 17.109C6.686 17.8986 8.25389 18.3524 9.93053 18.3524C15.042 18.3524 19.2835 13.8414 18.9844 8.7405ZM14.3623 12.6524C14.2807 12.8158 14.181 12.9701 14.0542 13.1153C13.8276 13.3604 13.5829 13.5419 13.311 13.6508C13.0391 13.7688 12.74 13.8233 12.4228 13.8233C11.9606 13.8233 11.4622 13.7145 10.9456 13.4876C10.4199 13.2606 9.90334 12.961 9.38676 12.5889C8.86111 12.2077 8.37171 11.7811 7.90044 11.3182C7.42917 10.8462 7.01225 10.347 6.6316 9.82967C6.26002 9.31231 5.96097 8.79496 5.74346 8.2776C5.52595 7.76024 5.41721 7.26109 5.41721 6.78911C5.41721 6.4805 5.47158 6.18098 5.58033 5.90869C5.68909 5.62732 5.8613 5.37319 6.106 5.14628C6.39601 4.85583 6.7132 4.71969 7.04853 4.71969C7.1754 4.71969 7.30226 4.74691 7.42008 4.80137C7.5379 4.85582 7.64667 4.93751 7.72824 5.05551L8.77954 6.54403C8.86111 6.66202 8.92455 6.76186 8.9608 6.86171C9.00611 6.96155 9.02424 7.05231 9.02424 7.14307C9.02424 7.25199 8.98799 7.36093 8.92455 7.4698C8.86111 7.57871 8.77954 7.68763 8.67079 7.79655L8.3264 8.15961C8.27202 8.21406 8.25389 8.26852 8.25389 8.34114C8.25389 8.37744 8.26296 8.41375 8.27202 8.45005C8.29015 8.48636 8.29921 8.51359 8.30827 8.54082C8.38984 8.69512 8.53484 8.88572 8.73423 9.12171C8.94267 9.35769 9.16019 9.60276 9.39582 9.83875C9.64052 10.0838 9.87616 10.3016 10.1209 10.5104C10.3565 10.7101 10.5559 10.8462 10.7099 10.9279C10.7371 10.937 10.7643 10.9551 10.7915 10.9642C10.8278 10.9824 10.864 10.9824 10.9093 10.9824C10.9909 10.9824 11.0453 10.9551 11.0997 10.9007L11.444 10.5558C11.5619 10.4378 11.6706 10.3561 11.7703 10.3016C11.8791 10.2381 11.9788 10.2018 12.0966 10.2018C12.1872 10.2018 12.2778 10.22 12.3775 10.2653C12.4772 10.3107 12.586 10.3652 12.6947 10.4469L14.1992 11.5179C14.317 11.5996 14.3986 11.6994 14.4529 11.8083C14.4982 11.9263 14.5254 12.0352 14.5254 12.1623C14.4711 12.3166 14.4348 12.4891 14.3623 12.6524Z" fill="white"/>
</svg>
